<?xml version="1.0" standalone="no"?>
<!DOCTYPE svg PUBLIC "-//W3C//DTD SVG 20010904//EN"
 "http://www.w3.org/TR/2001/REC-SVG-20010904/DTD/svg10.dtd">
<svg version="1.0" xmlns="http://www.w3.org/2000/svg"
 width="404.000000pt" height="404.000000pt" viewBox="0 0 404.000000 404.000000"
 preserveAspectRatio="xMidYMid meet">
<metadata>
Created by potrace 1.11, written by Peter Selinger 2001-2013
</metadata>
<g transform="translate(0.000000,404.000000) scale(0.100000,-0.100000)"
fill="#000000" stroke="none">
<path d="M846 3910 c-335 -187 -612 -441 -805 -740 l-41 -63 0 -1012 0 -1011
70 -103 c288 -425 733 -743 1255 -897 l80 -24 591 0 592 0 87 25 c388 113 717
305 996 584 130 130 248 279 325 410 l44 76 0 968 0 968 -60 89 c-197 294
-463 528 -825 729 l-110 61 -1045 0 -1045 0 -109 -60z m1502 -6 c273 -43 512
-141 699 -287 65 -51 194 -181 240 -242 90 -121 160 -281 188 -430 25 -132 17
-329 -19 -449 -50 -166 -117 -286 -236 -425 -72 -84 -1001 -866 -1073 -903
-189 -98 -447 -27 -532 147 -24 48 -27 64 -24 132 6 127 0 121 540 573 262
219 492 418 512 442 20 24 51 75 69 114 31 66 33 74 33 184 -1 135 -19 193
-91 289 -94 126 -219 196 -436 245 l-28 6 0 310 0 310 30 0 c17 0 74 -7 128
-16z m-468 -104 c0 -108 -1 -111 -25 -122 l-25 -11 0 -207 0 -208 -56 -28
c-35 -18 -234 -179 -528 -426 -316 -267 -491 -408 -531 -428 -121 -61 -246
-63 -368 -7 -167 76 -236 247 -161 394 27 53 65 87 504 456 261 219 511 422
555 451 90 60 198 117 295 154 52 20 302 89 333 91 4 1 7 -49 7 -109z m381
-769 c136 -51 219 -158 219 -281 0 -58 -22 -122 -56 -167 -14 -18 -220 -196
-457 -395 -467 -390 -533 -449 -577 -518 -71 -112 -91 -263 -51 -390 44 -140
173 -274 327 -340 39 -17 95 -33 184 -54 l25 -5 2 -311 c2 -241 0 -310 -10
-310 -36 1 -230 32 -301 49 -367 88 -700 327 -865 622 -81 145 -124 313 -124
489 0 286 111 538 330 752 113 111 968 819 1018 843 28 14 71 30 95 35 66 14
177 5 241 -19z m1367 -1181 c76 -14 141 -49 198 -105 65 -65 89 -130 81 -222
-6 -85 -40 -138 -142 -226 -264 -229 -882 -740 -949 -785 -168 -113 -306 -167
-598 -236 l-28 -6 0 324 0 324 46 18 c83 32 153 85 594 455 239 200 452 378
474 394 81 62 208 87 324 65z"/>
</g>
</svg>
