<?xml version="1.0" encoding="UTF-8"?>
<svg width="10px" height="12px" viewBox="0 0 10 12" version="1.1" xmlns="http://www.w3.org/2000/svg" xmlns:xlink="http://www.w3.org/1999/xlink">
    <!-- Generator: Sketch 53 (72520) - https://sketchapp.com -->
    <title>Group 3</title>
    <desc>Created with Sketch.</desc>
    <defs>
        <polygon id="path-1" points="0.00100278552 0.00628412256 9.79171588 0.00628412256 9.79171588 11.9833036 0.00100278552 11.9833036"></polygon>
    </defs>
    <g id="Page-1" stroke="none" stroke-width="1" fill="none" fill-rule="evenodd">
        <g id="Login-1" transform="translate(-870.000000, -332.000000)">
            <g id="Group-10" transform="translate(770.000000, 291.000000)">
                <g id="Group-6" transform="translate(0.000000, 29.000000)">
                    <g id="分组" transform="translate(100.000000, 10.000000)">
                        <g id="Group-3" transform="translate(0.000000, 2.000000)">
                            <mask id="mask-2" fill="white">
                                <use xlink:href="#path-1"></use>
                            </mask>
                            <g id="Clip-2"></g>
                            <path d="M8.82275766,4.17476323 L8.24530362,4.17476323 L8.24530362,3.35555432 C8.24530362,1.50870752 6.74274652,0.00628412256 4.89589972,0.00628412256 C3.04903621,0.00628412256 1.54654596,1.50882451 1.54654596,3.35555432 L1.54654596,4.17462953 L0.96897493,4.17462953 C0.712011142,4.17462953 0.465493036,4.27674652 0.283788301,4.45850139 C0.102100279,4.64018942 0,4.88664067 0,5.14360446 L0,11.0143287 C0,11.2712925 0.102100279,11.5177604 0.283788301,11.6995153 C0.465493036,11.8812033 0.712011142,11.9833036 0.96897493,11.9833036 L8.82275766,11.9833036 C9.07977159,11.9833036 9.32623955,11.8812033 9.50792758,11.6995153 C9.68968245,11.5177604 9.79171588,11.2712925 9.79171588,11.0143287 L9.79171588,5.14373816 C9.79171588,4.88677437 9.68968245,4.64032312 9.50792758,4.45861838 C9.32623955,4.27686351 9.07977159,4.17476323 8.82275766,4.17476323 Z M4.89589972,0.993142061 C6.19853482,0.993142061 7.25844568,2.05291922 7.25844568,3.35555432 L7.25844568,4.17462953 L2.53347075,4.17462953 L2.53347075,3.35555432 C2.53347075,2.05291922 3.59318106,0.993142061 4.89589972,0.993142061 Z M5.42130919,8.50228412 L5.42130919,9.65979944 C5.42130919,9.94998886 5.18608914,10.1852089 4.89589972,10.1852089 C4.60562674,10.1852089 4.37040669,9.94998886 4.37040669,9.65979944 L4.37040669,8.50228412 C3.9298663,8.26210028 3.70835097,7.75372145 3.83232869,7.2675376 C3.95623955,6.78135376 4.39410585,6.44109192 4.89589972,6.44109192 C5.39761003,6.44109192 5.83547632,6.78135376 5.95945404,7.2675376 C6.0833649,7.75372145 5.86184958,8.26210028 5.42130919,8.50228412 Z" id="Fill-1" fill="#00C087" mask="url(#mask-2)"></path>
                        </g>
                    </g>
                </g>
            </g>
        </g>
    </g>
</svg>