<?xml version="1.0" encoding="iso-8859-1"?>
<!-- Generator: Adobe Illustrator 16.0.0, SVG Export Plug-In . SVG Version: 6.00 Build 0)  -->
<!DOCTYPE svg PUBLIC "-//W3C//DTD SVG 1.1//EN" "http://www.w3.org/Graphics/SVG/1.1/DTD/svg11.dtd">
<svg version="1.1" id="Capa_1" xmlns="http://www.w3.org/2000/svg" xmlns:xlink="http://www.w3.org/1999/xlink" x="0px" y="0px"
	 width="45.959px" height="45.959px" viewBox="0 0 45.959 45.959" style="enable-background:new 0 0 45.959 45.959;"
	 xml:space="preserve">
<g>
	<g>
		<path d="M33.979,43.062c0,1.601,1.296,2.896,2.896,2.896h4.209c1.599,0,2.896-1.296,2.896-2.896V2.896
			c0-1.6-1.296-2.896-2.896-2.896h-4.209c-1.601,0-2.896,1.296-2.896,2.896V43.062z"/>
		<path d="M17.979,43.062c0,1.601,1.296,2.896,2.896,2.896h4.209c1.599,0,2.896-1.296,2.896-2.896V12.896
			c0-1.6-1.296-2.896-2.896-2.896h-4.209c-1.599,0-2.896,1.296-2.896,2.896V43.062z"/>
		<path d="M1.979,43.062c0,1.601,1.296,2.896,2.896,2.896h4.209c1.599,0,2.896-1.296,2.896-2.896V22.896
			c0-1.6-1.296-2.896-2.896-2.896H4.875c-1.6,0-2.896,1.296-2.896,2.896V43.062z"/>
	</g>
</g>
<g>
</g>
<g>
</g>
<g>
</g>
<g>
</g>
<g>
</g>
<g>
</g>
<g>
</g>
<g>
</g>
<g>
</g>
<g>
</g>
<g>
</g>
<g>
</g>
<g>
</g>
<g>
</g>
<g>
</g>
</svg>
